<svg width="1080" height="1080" viewBox="0 0 1080 1080" fill="none" xmlns="http://www.w3.org/2000/svg">
<path d="M271.387 367.335C286.319 351.735 284.614 325.869 267.578 309.562C250.542 293.254 224.626 292.681 209.694 308.281C194.761 323.88 196.467 349.746 213.503 366.053C230.539 382.361 256.454 382.934 271.387 367.335Z" fill="#E4AC7B"/>
<path d="M365.522 576C364.022 576 362.522 575.6 361.122 574.8C319.922 549.9 284.522 501.5 283.022 499.5C280.222 495.7 281.122 490.4 284.922 487.6C288.722 484.8 294.022 485.7 296.822 489.5C297.222 490.1 331.822 537.2 369.922 560.3C373.922 562.7 375.222 567.9 372.822 572C371.222 574.5 368.422 576 365.522 576Z" fill="#F5B6CD"/>
<path d="M416.024 584.6C414.624 584.6 413.224 584.3 411.824 583.8C343.024 556.4 286.924 498.6 261.724 429C259.624 423.1 262.624 416.6 268.524 414.5C274.424 412.4 280.924 415.4 283.024 421.3C306.124 484.9 357.424 537.8 420.224 562.8C426.024 565.1 428.824 571.7 426.524 577.5C424.724 581.9 420.524 584.6 416.024 584.6Z" fill="#FDDA24"/>
<path d="M176.926 410.2L252.026 578.8L317.726 586.3C317.826 586.3 405.326 337.3 176.926 410.2Z" fill="#59CBE8"/>
<path d="M234.124 919C232.924 919 231.724 918.9 230.524 918.7C220.424 916.7 213.724 907 215.724 896.8C216.024 895 249.924 719.1 263.124 623.1C264.524 612.9 273.924 605.7 284.124 607.1C294.324 608.5 301.524 617.9 300.124 628.1C286.824 725.1 252.824 902 252.424 903.7C250.724 912.8 242.824 919 234.124 919Z" fill="#9063CD"/>
<path d="M220.426 673.6C220.426 673.6 209.426 766.2 168.926 823.7L220.426 673.6Z" fill="white"/>
<path d="M168.925 837.5C166.125 837.5 163.325 836.7 160.925 835C154.625 830.6 153.125 821.9 157.525 815.6C195.425 761.7 206.525 672.8 206.625 671.9C207.525 664.3 214.425 658.8 222.025 659.7C229.625 660.6 235.125 667.5 234.225 675.1C233.725 679 222.325 771.9 180.325 831.5C177.525 835.5 173.225 837.5 168.925 837.5Z" fill="#00C389"/>
<path d="M134.624 923.3C129.724 923.3 124.924 921.4 121.224 917.7C114.024 910.3 114.124 898.5 121.524 891.3C192.624 821.9 220.724 668 221.024 666.5C222.824 656.3 232.524 649.6 242.724 651.4C252.924 653.2 259.624 662.9 257.824 673.1C256.624 679.9 227.424 840.2 147.624 918.1C144.024 921.6 139.324 923.3 134.624 923.3Z" fill="#FDDA24"/>
<path d="M204.023 435.4C203.023 435.4 201.923 435.3 200.923 435C169.823 426.2 142.523 406.9 123.823 380.6C105.123 354.3 95.9231 322.1 97.8231 289.9C98.2231 283.8 99.0231 277.9 100.223 272.2C101.523 266.1 107.523 262.2 113.723 263.5C119.923 264.8 123.723 270.8 122.423 277C121.423 281.6 120.823 286.4 120.523 291.3C118.923 318.4 126.723 345.5 142.423 367.6C158.123 389.7 181.123 405.9 207.223 413.3C213.223 415 216.723 421.3 215.023 427.3C213.523 432.2 208.923 435.4 204.023 435.4Z" fill="#9063CD"/>
<path d="M189.323 444.8C188.523 444.8 187.823 444.7 187.023 444.5C155.223 435.5 128.723 415.8 110.623 387.6C96.923 366.4 92.723 347.9 92.623 347.1C91.623 342.5 94.523 338 99.123 337C103.723 336 108.223 338.9 109.223 343.4C109.323 343.7 113.123 360.3 125.323 378.9C141.423 403.6 163.723 420.1 191.723 428.1C196.223 429.4 198.823 434.1 197.523 438.6C196.423 442.4 193.023 444.8 189.323 444.8Z" fill="#FDDA24"/>
<path d="M80.6246 310.2C76.1246 310.2 72.4246 306.7 72.1246 302.2C72.0246 299.5 70.9246 275.9 77.7246 263.3C79.9246 259.2 85.1246 257.6 89.2246 259.8C93.3246 262 94.9246 267.2 92.7246 271.3C89.3246 277.7 88.7246 293.1 89.1246 301.2C89.4246 305.9 85.8246 309.9 81.1246 310.1C80.9246 310.2 80.8246 310.2 80.6246 310.2Z" fill="#FDDA24"/>
<path d="M279.726 550.9H326.526L294.426 700.5H116.426L121.026 679.1C137.126 604.3 203.226 550.9 279.726 550.9Z" fill="#2C2A29"/>
<path d="M788.127 509.2C783.927 509.2 779.927 509 776.227 508.6C747.127 505.7 728.327 493 727.527 492.5C722.227 488.9 720.927 481.6 724.527 476.3C728.127 471 735.327 469.7 740.627 473.3C741.027 473.5 756.227 483.5 779.627 485.6C811.027 488.4 842.027 476.3 871.527 449.7C876.327 445.4 883.627 445.8 887.927 450.6C892.227 455.4 891.827 462.7 887.027 467C849.627 500.8 814.127 509.2 788.127 509.2Z" fill="#00C389"/>
<path d="M849.624 506.7C846.824 506.7 844.124 505.1 842.824 502.5C841.024 498.8 842.524 494.3 846.324 492.4C867.224 482.2 886.824 466.2 904.624 444.9C907.324 441.7 912.024 441.3 915.224 443.9C918.424 446.6 918.824 451.3 916.224 454.5C897.124 477.5 875.824 494.8 853.024 505.9C851.924 506.5 850.724 506.7 849.624 506.7Z" fill="#59CBE8"/>
<path d="M785.725 521.1H785.625C750.325 520.5 725.925 507.7 724.925 507.1C721.225 505.1 719.925 500.6 721.825 496.9C723.825 493.2 728.325 491.9 732.025 493.8C732.425 494 754.525 505.5 785.925 506C790.125 506.1 793.425 509.5 793.325 513.6C793.125 517.8 789.825 521.1 785.725 521.1Z" fill="#59CBE8"/>
<path d="M700.723 920.6H418.223C390.223 920.6 367.523 897.9 367.523 869.9V207.7C367.523 179.7 390.223 157 418.223 157H700.723C728.723 157 751.423 179.7 751.423 207.7V869.8C751.523 897.9 728.823 920.6 700.723 920.6Z" fill="#FF7F41"/>
<path d="M559.525 895.1C572.725 895.1 583.425 884.399 583.425 871.2C583.425 858 572.725 847.3 559.525 847.3C546.325 847.3 535.625 858 535.625 871.2C535.625 884.399 546.325 895.1 559.525 895.1Z" fill="white"/>
<path d="M724.825 233.4H394.125V822.7H724.825V233.4Z" fill="white"/>
<path d="M494.323 465.8C495.323 469.8 499.423 471.8 503.523 470.5C537.223 460.2 570.923 453.2 605.723 448.1C609.723 447.6 611.923 443.5 610.423 439.4C607.323 430.8 605.723 426.4 602.623 417.8C601.323 414.2 597.623 411.8 593.923 412.2C559.923 416.4 527.023 422.5 494.123 432C489.823 433.3 487.223 438.1 488.323 442.3C490.623 451.7 491.823 456.4 494.323 465.8Z" fill="#2C2A29"/>
<path d="M630.725 470.5C629.425 466.6 625.825 464.1 622.325 464.5C569.025 471.2 517.225 484.3 468.025 505.9C464.425 507.6 462.325 512.1 463.025 516C464.925 526.1 465.925 531.1 467.925 541.2C468.725 545.5 472.825 547.5 476.825 545.6C526.725 522.9 579.525 508.5 633.725 499.9C637.125 499.3 638.925 495.4 637.625 491.4C634.925 483 633.525 478.8 630.725 470.5Z" fill="#2C2A29"/>
<path d="M630.524 526.799C629.224 522.699 625.324 519.999 621.724 520.699C588.424 527.899 555.924 536.499 523.824 547.399C519.724 548.899 517.424 553.199 518.524 557.099C521.124 566.499 522.324 571.099 524.924 580.499C526.124 584.899 531.124 587.199 535.724 585.399C567.924 573.999 600.424 563.999 633.624 555.999C636.824 555.199 638.424 551.499 637.224 547.699C634.524 539.399 633.224 535.199 630.524 526.799Z" fill="#2C2A29"/>
<path d="M966.023 570.7L966.223 888.2C966.223 903.7 953.623 916.3 938.123 916.3C923.623 916.3 911.623 905.1 910.123 891L878.723 575.1C876.323 551.1 893.923 529.6 917.923 527.3C941.923 524.9 963.423 542.5 965.723 566.5C966.023 567.8 966.023 569.3 966.023 570.7Z" fill="#2C2A29"/>
<path d="M911.124 581.2L840.724 894.4C837.324 909.7 822.024 919.4 806.724 915.9C792.324 912.7 782.924 898.9 784.724 884.6L825.024 566.1C828.024 542.1 849.924 525.2 873.924 528.2C897.924 531.2 914.824 553.1 911.824 577.1C911.724 578.5 911.424 579.9 911.124 581.2Z" fill="#2C2A29"/>
<path d="M906.841 364.978C915.663 342.93 907.27 318.837 888.093 311.163C868.917 303.49 846.219 315.142 837.396 337.19C828.574 359.238 836.968 383.332 856.144 391.005C875.321 398.679 898.018 387.026 906.841 364.978Z" fill="#B28038"/>
<path d="M897.825 609.5H889.425C855.825 609.5 828.625 582.3 828.625 548.7V543.3H958.525V548.7C958.625 582.3 931.325 609.5 897.825 609.5Z" fill="#2C2A29"/>
<path d="M944.625 401.7L976.825 586.2L811.925 594.1C811.825 594.1 795.625 403.8 944.625 401.7Z" fill="#E6DCCB"/>
<path d="M927.326 431.499C922.926 431.499 918.726 428.999 916.826 424.799C914.126 418.999 916.626 412.099 922.426 409.399C922.826 409.199 939.126 401.099 952.826 382.099C971.226 356.499 976.526 323.699 968.626 284.699C967.326 278.399 971.426 272.299 977.726 270.999C984.026 269.699 990.126 273.799 991.426 280.099C1003.13 337.599 986.726 375.299 970.926 396.799C953.626 420.399 933.226 430.099 932.326 430.499C930.626 431.099 928.926 431.499 927.326 431.499Z" fill="#9063CD"/>
<path d="M1000.02 336.1C999.824 336.1 999.624 336.1 999.424 336.1C995.324 335.8 992.224 332.1 992.524 328C994.324 304.8 990.524 279.8 981.224 253.7C979.824 249.8 981.824 245.5 985.724 244.1C989.624 242.7 993.924 244.7 995.324 248.6C1005.42 276.7 1009.52 303.8 1007.52 329.2C1007.22 333.1 1003.92 336.1 1000.02 336.1Z" fill="#59CBE8"/>
<path d="M939.524 441.199C937.024 441.199 934.524 439.899 933.124 437.599C930.924 434.099 932.124 429.399 935.624 427.299C935.924 427.099 957.024 413.899 973.424 387.099C975.624 383.599 980.224 382.399 983.724 384.599C987.224 386.799 988.424 391.399 986.224 394.899C967.824 424.999 944.324 439.499 943.324 440.099C942.224 440.899 940.824 441.199 939.524 441.199Z" fill="#59CBE8"/>
<path d="M801.721 527C787.721 527 775.821 516.3 774.521 502.1C773.421 489.9 771.421 477.8 768.421 466.1C765.521 454.8 761.421 443.3 756.221 431.9C751.221 420.9 745.221 410.2 738.521 400.1C731.821 390.2 724.121 380.7 715.621 371.9C707.221 363.1 698.021 355 688.321 347.8C678.921 340.8 668.521 334.4 657.421 328.7C646.621 323.2 635.221 318.6 623.621 315C612.521 311.6 600.521 309 588.121 307.4C573.221 305.5 562.621 291.8 564.621 276.8C566.521 261.9 580.221 251.3 595.221 253.3C610.621 255.3 625.721 258.5 639.821 262.9C654.421 267.4 668.621 273.2 682.121 280C696.021 287.1 709.121 295.1 721.021 304C733.121 313.1 744.621 323.2 755.121 334.1C765.721 345.2 775.321 357.1 783.821 369.5L783.921 369.6C792.421 382.2 799.821 395.6 806.121 409.4C812.521 423.6 817.721 438.1 821.421 452.4C825.221 467.1 827.721 482.2 829.121 497.3C830.421 512.3 819.321 525.6 804.321 526.9C803.221 527 802.421 527 801.721 527Z" fill="#F5B6CD"/>
<path d="M743.324 424.7C736.824 424.7 730.524 421.5 726.824 415.6C712.624 393.2 693.524 373.3 671.624 358.3C660.524 350.7 648.724 344.2 636.624 339.1C624.324 333.9 611.524 330 598.424 327.5C572.224 322.4 544.724 322.6 518.824 328.2C492.924 333.7 467.824 344.8 446.124 360.3C437.324 366.6 425.224 364.5 418.924 355.7C412.624 346.9 414.724 334.8 423.524 328.5C449.524 310 479.624 296.7 510.724 290.1C541.724 283.5 574.624 283.2 605.924 289.3C621.624 292.4 637.024 297.1 651.724 303.2C666.324 309.3 680.424 317.1 693.724 326.2C719.924 344.2 742.724 368 759.724 394.8C765.524 403.9 762.724 415.9 753.624 421.7C750.524 423.7 746.924 424.7 743.324 424.7Z" fill="#FDDA24"/>
<path d="M560.724 764.3C551.024 764.3 541.324 763.7 531.724 762.6C517.324 760.9 503.124 758 489.724 753.9C462.424 745.6 436.924 732.7 414.024 715.6C368.224 681.2 334.924 629.9 322.724 575.1C319.424 560.4 328.724 545.8 343.424 542.5C358.124 539.2 372.724 548.5 376.024 563.2C385.524 605.6 411.324 645.2 446.824 671.9C464.624 685.2 484.424 695.2 505.724 701.7C516.024 704.9 526.824 707.1 538.024 708.4C549.024 709.7 560.224 710 571.324 709.4C586.424 708.6 599.224 720.2 600.024 735.2C600.824 750.3 589.224 763.1 574.224 763.9C569.724 764.2 565.224 764.3 560.724 764.3Z" fill="#F5B6CD"/>
<path d="M341.521 439.6C338.121 439.6 334.721 438.9 331.421 437.3C319.721 431.7 314.821 417.8 320.421 406.1C328.821 388.6 339.221 371.8 351.621 356.2C364.221 340.3 378.121 326.2 393.021 314.2C424.021 289.2 460.321 271.2 497.921 262.3C510.521 259.3 523.121 267.1 526.021 279.7C529.021 292.3 521.221 304.9 508.621 307.8C477.721 315.1 447.821 329.9 422.321 350.6C410.121 360.4 398.721 372 388.321 385.2C378.121 398.1 369.521 411.9 362.621 426.3C358.621 434.7 350.321 439.6 341.521 439.6Z" fill="#00C389"/>
<path d="M384.523 714.8C377.323 714.8 370.123 712 364.723 706.3C339.423 679.7 319.423 647.5 306.923 613.3C294.423 579.1 288.923 541.7 291.023 505C291.923 490 304.823 478.5 319.823 479.3C334.823 480.2 346.323 493.1 345.523 508.1C343.823 537.4 348.223 567.3 358.123 594.5C368.123 621.8 384.023 647.4 404.223 668.6C414.623 679.5 414.123 696.8 403.223 707.2C398.123 712.3 391.323 714.8 384.523 714.8Z" fill="#FF7F41"/>
<path d="M560.524 782.5C527.924 782.5 495.324 776.5 464.924 764.5C454.924 760.6 449.924 749.2 453.924 739.2C457.824 729.2 469.224 724.2 479.224 728.2C523.124 745.4 572.224 748.2 617.724 736C663.424 723.9 704.724 697 734.024 660.3C740.724 651.9 753.024 650.5 761.424 657.2C769.824 663.9 771.224 676.2 764.524 684.6C730.024 727.7 681.524 759.4 627.824 773.6C605.824 779.6 583.124 782.5 560.524 782.5Z" fill="#59CBE8"/>
<path d="M684.322 725.3C675.722 725.3 667.222 721.3 661.922 713.7C653.222 701.4 656.222 684.3 668.622 675.7C679.922 667.8 690.422 658.6 699.722 648.4C708.822 638.5 717.022 627.4 724.122 615.1C731.022 603.2 736.622 590.5 740.722 577.4C744.722 564.6 747.422 551 748.622 537C749.922 522 763.122 510.8 778.122 512.1C793.122 513.4 804.322 526.6 803.022 541.6C801.522 559.6 798.022 577.2 792.722 593.8C787.422 610.7 780.122 627 771.322 642.4C762.222 658.1 751.622 672.5 739.822 685.3C727.822 698.3 714.422 710.1 699.922 720.2C695.222 723.7 689.722 725.3 684.322 725.3Z" fill="#9063CD"/>
</svg>
