<svg width="1080" height="1080" viewBox="0 0 1080 1080" fill="none" xmlns="http://www.w3.org/2000/svg">
<path fill-rule="evenodd" clip-rule="evenodd" d="M177.312 170.866C177.312 149.5 194.633 132.18 215.999 132.18H860.775C882.141 132.18 899.462 149.5 899.462 170.866V596.419C899.462 617.785 882.141 635.105 860.775 635.105H215.999C194.633 635.105 177.312 617.785 177.312 596.419V170.866ZM215.999 157.971C208.877 157.971 203.104 163.744 203.104 170.866V596.419C203.104 603.541 208.877 609.314 215.999 609.314H860.775C867.897 609.314 873.671 603.541 873.671 596.419V170.866C873.671 163.744 867.897 157.971 860.775 157.971H215.999Z" fill="#00C389"/>
<path fill-rule="evenodd" clip-rule="evenodd" d="M886.567 293.373C893.689 293.373 899.462 299.147 899.462 306.269V596.418C899.462 617.784 882.142 635.104 860.776 635.104H585.134C578.012 635.104 572.238 629.331 572.238 622.209C572.238 615.087 578.012 609.313 585.134 609.313H860.776C867.898 609.313 873.671 603.54 873.671 596.418V306.269C873.671 299.147 879.445 293.373 886.567 293.373Z" fill="#FF7F41"/>
<path fill-rule="evenodd" clip-rule="evenodd" d="M190.208 354.627C197.33 354.627 203.104 360.4 203.104 367.522V596.418C203.104 603.54 208.877 609.314 215.999 609.314H523.88C531.002 609.314 536.775 615.087 536.775 622.209C536.775 629.331 531.002 635.105 523.88 635.105H215.999C194.633 635.105 177.312 617.784 177.312 596.418V367.522C177.312 360.4 183.086 354.627 190.208 354.627Z" fill="#59CBE8"/>
<path fill-rule="evenodd" clip-rule="evenodd" d="M177.312 170.866C177.312 149.5 194.633 132.18 215.999 132.18H386.865C393.987 132.18 399.76 137.953 399.76 145.075C399.76 152.197 393.987 157.971 386.865 157.971H215.999C208.877 157.971 203.104 163.744 203.104 170.866V457.792C203.104 464.914 197.33 470.687 190.208 470.687C183.086 470.687 177.312 464.914 177.312 457.792V170.866Z" fill="#F5B6CD"/>
<path d="M620.473 233.575C620.473 227.321 625.542 222.252 631.796 222.252H657.901C664.155 222.252 669.224 227.321 669.224 233.575V245.055C669.224 251.308 664.155 256.378 657.901 256.378H631.796C625.542 256.378 620.473 251.308 620.473 245.055V233.575Z" fill="#FDDA24"/>
<path d="M620.473 282.325C620.473 276.071 625.542 271.002 631.796 271.002H657.901C664.155 271.002 669.224 276.071 669.224 282.325V293.805C669.224 300.058 664.155 305.128 657.901 305.128H631.796C625.542 305.128 620.473 300.058 620.473 293.805V282.325Z" fill="#FDDA24"/>
<path d="M620.473 331.079C620.473 324.825 625.542 319.756 631.796 319.756H657.901C664.155 319.756 669.224 324.825 669.224 331.079V342.559C669.224 348.812 664.155 353.882 657.901 353.882H631.796C625.542 353.882 620.473 348.812 620.473 342.559V331.079Z" fill="#FDDA24"/>
<path d="M620.473 379.827C620.473 373.573 625.542 368.504 631.796 368.504H657.901C664.155 368.504 669.224 373.573 669.224 379.827V391.307C669.224 397.56 664.155 402.63 657.901 402.63H631.796C625.542 402.63 620.473 397.56 620.473 391.307V379.827Z" fill="#FDDA24"/>
<path d="M683.854 233.575C683.854 227.321 688.923 222.252 695.176 222.252H721.282C727.535 222.252 732.605 227.321 732.605 233.575V245.055C732.605 251.308 727.535 256.378 721.282 256.378H695.176C688.923 256.378 683.854 251.308 683.854 245.055V233.575Z" fill="#FDDA24"/>
<path d="M683.854 282.325C683.854 276.071 688.923 271.002 695.176 271.002H721.282C727.535 271.002 732.605 276.071 732.605 282.325V293.805C732.605 300.058 727.535 305.128 721.282 305.128H695.176C688.923 305.128 683.854 300.058 683.854 293.805V282.325Z" fill="#FDDA24"/>
<path d="M683.854 331.079C683.854 324.825 688.923 319.756 695.176 319.756H721.282C727.535 319.756 732.605 324.825 732.605 331.079V342.559C732.605 348.812 727.535 353.882 721.282 353.882H695.176C688.923 353.882 683.854 348.812 683.854 342.559V331.079Z" fill="#FDDA24"/>
<path d="M683.854 379.827C683.854 373.573 688.923 368.504 695.176 368.504H721.282C727.535 368.504 732.605 373.573 732.605 379.827V391.307C732.605 397.56 727.535 402.63 721.282 402.63H695.176C688.923 402.63 683.854 397.56 683.854 391.307V379.827Z" fill="#FDDA24"/>
<path d="M747.234 233.575C747.234 227.321 752.304 222.252 758.557 222.252H784.663C790.916 222.252 795.986 227.321 795.986 233.575V245.055C795.986 251.308 790.916 256.378 784.663 256.378H758.557C752.304 256.378 747.234 251.308 747.234 245.055V233.575Z" fill="#FDDA24"/>
<path d="M747.234 282.325C747.234 276.071 752.304 271.002 758.557 271.002H784.663C790.916 271.002 795.986 276.071 795.986 282.325V293.805C795.986 300.058 790.916 305.128 784.663 305.128H758.557C752.304 305.128 747.234 300.058 747.234 293.805V282.325Z" fill="#FDDA24"/>
<path d="M747.234 331.079C747.234 324.825 752.304 319.756 758.557 319.756H784.663C790.916 319.756 795.986 324.825 795.986 331.079V342.559C795.986 348.812 790.916 353.882 784.663 353.882H758.557C752.304 353.882 747.234 348.812 747.234 342.559V331.079Z" fill="#FDDA24"/>
<path d="M747.234 379.827C747.234 373.573 752.304 368.504 758.557 368.504H784.663C790.916 368.504 795.986 373.573 795.986 379.827V391.307C795.986 397.56 790.916 402.63 784.663 402.63H758.557C752.304 402.63 747.234 397.56 747.234 391.307V379.827Z" fill="#FDDA24"/>
<path d="M280.793 479.101C280.793 466.594 290.932 456.455 303.439 456.455H773.339C785.846 456.455 795.985 466.594 795.985 479.101V532.885C795.985 545.392 785.846 555.53 773.339 555.53H303.439C290.932 555.53 280.793 545.392 280.793 532.885V479.101Z" fill="#CCCCCC"/>
<path d="M309.102 507.406C309.102 498.026 316.706 490.422 326.086 490.422H750.695C760.075 490.422 767.679 498.026 767.679 507.406C767.679 516.786 760.075 524.391 750.695 524.391H326.086C316.706 524.391 309.102 516.786 309.102 507.406Z" fill="#2C2A29"/>
<path d="M413.22 652.991C411.545 583.243 466.729 525.343 536.477 523.668C605.052 522.022 661.978 576.277 663.624 644.852L664.313 673.524L413.858 679.538L413.22 652.991Z" fill="#E4AC7B"/>
<path d="M464.791 733.867L614.819 733.867L614.819 888.893C614.819 900.203 605.65 909.372 594.34 909.372L485.271 909.372C473.96 909.372 464.791 900.203 464.791 888.893L464.791 733.867Z" fill="#E4AC7B"/>
<path d="M660.113 684.326C660.113 752.332 604.983 807.463 536.976 807.463C468.97 807.463 413.84 752.332 413.84 684.326C413.84 616.32 468.97 561.189 536.976 561.189C604.983 561.189 660.113 616.32 660.113 684.326Z" fill="#E4AC7B"/>
<path d="M613.002 745.83C612.954 745.802 612.907 745.775 612.86 745.748C591.495 732.974 555.488 708.988 553.935 707.966C549.56 705.064 548.342 699.096 551.278 694.773C554.168 690.424 560.147 689.237 564.495 692.187C564.846 692.452 601.629 716.948 622.569 729.477C627.1 732.218 628.596 738.033 625.868 742.539C623.317 746.958 617.54 748.45 613.002 745.83Z" fill="#00C389"/>
<path d="M739.365 490.422L739.365 671.588L337.402 671.588L337.402 490.422L739.365 490.422Z" fill="#7A531C"/>
<path d="M739.365 490.422L739.365 660.265L337.402 660.265L337.402 490.422L739.365 490.422Z" fill="#00C389"/>
<path d="M566.018 573.647C566.018 578.856 564.319 583.272 560.923 586.895C557.526 590.443 552.921 592.972 547.109 594.481C548.09 598.633 548.467 602.822 548.241 607.05C545.674 607.654 543.221 607.955 540.881 607.955C538.616 607.955 536.163 607.654 533.521 607.05L533.408 604.559C533.408 601.917 533.71 599.086 534.314 596.066C527.973 596.066 522.047 595.236 516.537 593.575C516.008 592.066 515.744 590.443 515.744 588.707C515.744 585.687 516.461 582.856 517.895 580.214C524.689 582.705 530.2 583.951 534.427 583.951C545.07 583.951 550.392 580.932 550.392 574.893C550.392 572.175 549.524 569.911 547.788 568.099C546.127 566.212 542.73 564.249 537.597 562.211C532.54 560.173 528.539 558.248 525.595 556.436C522.651 554.549 520.462 552.36 519.028 549.869C517.594 547.378 516.876 544.321 516.876 540.697C516.876 535.64 518.424 531.337 521.519 527.789C524.614 524.242 528.954 521.788 534.54 520.43C533.559 516.655 533.219 512.617 533.521 508.314C536.163 507.71 538.616 507.408 540.881 507.408C543.221 507.408 545.674 507.71 548.241 508.314L548.354 510.805C548.354 513.447 548.052 516.278 547.448 519.297C551.525 519.373 556.205 520.09 561.489 521.449C562.093 522.43 562.394 523.675 562.394 525.185C562.394 526.695 562.13 528.28 561.602 529.941C561.149 531.526 560.583 532.885 559.903 534.017C553.034 531.979 547.75 530.96 544.051 530.96C536.352 530.96 532.502 533.451 532.502 538.433C532.502 540.396 533.446 542.358 535.333 544.321C537.295 546.208 540.013 547.793 543.485 549.076C549.449 551.266 554.053 553.53 557.299 555.87C560.545 558.135 562.81 560.664 564.093 563.457C565.376 566.249 566.018 569.646 566.018 573.647Z" fill="white"/>
<path d="M636.755 765.474C616.639 780.807 593.255 791.802 568.244 797.5C562.643 798.763 556.958 801.084 551.323 804.065C544.784 807.504 538.312 811.822 532.408 816.318C526.955 809.492 522.611 801.971 519.51 794.078L522.372 723.089C525.534 716.758 529.491 710.697 534.312 705.068C553.443 682.728 581.363 672.434 608.552 674.867C617.243 675.633 619.325 675.361 627.5 678.768L651.757 650.443L670.923 577.085C674.221 553.204 696.232 536.617 720.054 539.864C721.061 540.007 721.924 540.439 722.635 541.048C723.88 542.113 724.617 543.771 724.313 545.566L715.229 611.226L707.647 667.697C705.86 681.059 700.526 693.644 692.221 704.302L681.599 717.905L678.478 721.909L678.377 722.028L669.767 733.041C660.033 745.247 648.928 756.177 636.755 765.474Z" fill="#E4AC7B"/>
<path d="M595.445 949.001L484.162 949.001C474.519 949.001 465.272 945.156 458.453 938.312C451.635 931.467 447.805 922.184 447.805 912.505L447.805 824.449L631.802 824.449L631.802 912.518C631.798 922.195 627.966 931.475 621.148 938.316C614.33 945.158 605.085 949.001 595.445 949.001Z" fill="#59CBE8"/>
<path d="M637.468 807.463L442.148 807.463L442.148 847.093L637.468 847.093L637.468 807.463Z" fill="#FF7F41"/>
<path fill-rule="evenodd" clip-rule="evenodd" d="M306.584 247.295V376.879H555.059V247.295H306.584ZM292.116 221.504C285.862 221.504 280.793 226.573 280.793 232.827V391.347C280.793 397.601 285.862 402.67 292.116 402.67H569.527C575.78 402.67 580.85 397.601 580.85 391.347V232.827C580.85 226.573 575.78 221.504 569.527 221.504H292.116Z" fill="#CCCCCC"/>
</svg>
