<svg width="200" height="200" viewBox="0 0 200 200" fill="none" xmlns="http://www.w3.org/2000/svg">
<path d="M155.606 102.278C152.365 102.278 149.587 99.7963 149.31 96.5C149.069 93.6852 148.587 90.8704 147.884 88.1482C147.199 85.5186 146.254 82.8519 145.069 80.2223C143.921 77.6667 142.532 75.1852 140.958 72.8519C139.402 70.5556 137.606 68.3519 135.643 66.2963C133.699 64.2593 131.569 62.3889 129.31 60.7037C127.143 59.0741 124.717 57.5926 122.143 56.2778C119.643 55.0185 117.013 53.9445 114.31 53.1111C111.736 52.3148 108.958 51.7222 106.087 51.3519C102.624 50.9074 100.18 47.7222 100.624 44.2593C101.069 40.7963 104.254 38.3519 107.717 38.7963C111.291 39.2593 114.773 40.0185 118.05 41.0185C121.421 42.0741 124.717 43.4074 127.847 45C131.087 46.6482 134.106 48.5185 136.865 50.5556C139.68 52.6482 142.347 55 144.773 57.5371C147.236 60.0926 149.458 62.8519 151.421 65.7408L151.439 65.7593C153.402 68.6852 155.143 71.7778 156.587 74.9815C158.069 78.2778 159.273 81.6297 160.143 84.963C161.013 88.3704 161.606 91.8704 161.921 95.3704C162.217 98.8519 159.643 101.926 156.161 102.222C155.976 102.278 155.791 102.278 155.606 102.278Z" fill="#F5B6CD"/>
<path d="M142.07 78.2782C140.663 78.2782 139.274 77.5745 138.459 76.2967C135.144 71.056 130.7 66.4449 125.589 62.9264C122.996 61.1486 120.256 59.6301 117.422 58.4449C114.552 57.2412 111.57 56.3338 108.515 55.7412C102.422 54.556 95.9963 54.5931 89.9593 55.8894C83.9223 57.1857 78.0704 59.7597 73.0149 63.3708C71.0889 64.7412 68.4408 64.2968 67.0704 62.3708C65.7 60.4449 66.1445 57.7968 68.0704 56.4264C74.0704 52.1486 81.0149 49.0745 88.1815 47.556C95.3297 46.019 102.941 45.9634 110.163 47.3708C113.774 48.0745 117.33 49.1671 120.737 50.5931C124.089 52.0005 127.367 53.7968 130.441 55.9079C136.496 60.0745 141.756 65.556 145.682 71.7412C146.941 73.7227 146.348 76.3708 144.348 77.6301C143.644 78.0745 142.848 78.2782 142.07 78.2782Z" fill="#FF7F41"/>
<path d="M48.9028 81.9999C48.1251 81.9999 47.3288 81.8333 46.5695 81.4629C43.8658 80.1666 42.7176 76.9259 44.0139 74.2222C45.9584 70.1666 48.3843 66.2777 51.2362 62.6481L51.6991 62.0555C51.9028 61.7962 52.1251 61.5185 52.3843 61.2222L54.051 59.2962L56.1251 57.1296L58.2917 55.074L59.5139 54.0185C59.6065 53.9259 59.7176 53.8518 59.8102 53.7592C60.1065 53.4999 60.4584 53.2036 60.8658 52.8888C68.0695 47.0925 76.4769 42.9444 85.1806 40.8888C88.1065 40.2036 91.014 41.9999 91.6991 44.9259C92.3843 47.8518 90.588 50.7592 87.6621 51.4444C80.4954 53.1296 73.5695 56.5555 67.6436 61.3518L67.4954 61.4629C67.3658 61.5555 67.1621 61.7407 66.9584 61.9074C66.8288 62.0185 66.6991 62.1296 66.5695 62.2407L65.4954 63.1666L63.6991 64.8703L62.0325 66.6666L60.5325 68.4073C60.4584 68.4814 60.3473 68.6481 60.2732 68.7222L59.7732 69.3518C57.4028 72.3518 55.4028 75.574 53.8102 78.8888C52.8658 80.8518 50.9399 81.9999 48.9028 81.9999Z" fill="#00C389"/>
<path d="M126.069 170.556H73.7541C68.5689 170.556 64.3652 166.352 64.3652 161.167V38.5559C64.3652 33.3707 68.5689 29.167 73.7541 29.167H126.069C131.254 29.167 135.458 33.3707 135.458 38.5559V161.167C135.458 166.352 131.254 170.556 126.069 170.556Z" fill="#FDDA24"/>
<path d="M126.07 170.63H73.7364C68.5142 170.63 64.2734 166.389 64.2734 161.167V38.5372C64.2734 33.315 68.5142 29.0742 73.7364 29.0742H126.051C131.273 29.0742 135.514 33.315 135.514 38.5372V161.148C135.533 166.371 131.292 170.63 126.07 170.63ZM73.7364 29.2224C68.5883 29.2224 64.4031 33.4076 64.4031 38.5557V161.167C64.4031 166.315 68.5883 170.5 73.7364 170.5H126.051C131.199 170.5 135.385 166.315 135.385 161.167V38.5557C135.385 33.4076 131.199 29.2224 126.051 29.2224H73.7364Z" fill="#FDDA24"/>
<path d="M130.532 43.2969H69.291V152.426H130.532V43.2969Z" fill="white"/>
<path d="M87.8297 86.3334C88.0149 87.0741 88.7741 87.4445 89.5334 87.2038C95.7741 85.2963 102.015 84.0001 108.459 83.0556C109.2 82.963 109.607 82.2038 109.33 81.4445C108.756 79.8519 108.459 79.0371 107.885 77.4445C107.645 76.7778 106.959 76.3334 106.274 76.4075C99.9779 77.1852 93.8853 78.3149 87.7927 80.0741C86.9964 80.3149 86.5149 81.2038 86.7186 81.9815C87.1445 83.7038 87.3853 84.5741 87.8297 86.3334Z" fill="#2C2A29"/>
<path d="M113.088 87.2038C112.847 86.4816 112.181 86.0186 111.533 86.0927C101.662 87.3335 92.0696 89.7594 82.9585 93.7594C82.2919 94.0742 81.903 94.9076 82.0326 95.6298C82.3845 97.5001 82.5696 98.4261 82.94 100.296C83.0882 101.093 83.8474 101.463 84.5882 101.111C93.8289 96.9076 103.607 94.2409 113.644 92.6483C114.273 92.5372 114.607 91.815 114.366 91.0742C113.866 89.5186 113.607 88.7409 113.088 87.2038Z" fill="#2C2A29"/>
<path d="M113.051 97.6296C112.811 96.8703 112.088 96.3703 111.422 96.4999C105.255 97.8333 99.2365 99.4259 93.292 101.444C92.5327 101.722 92.1068 102.518 92.3105 103.241C92.792 104.981 93.0142 105.833 93.4957 107.574C93.7179 108.389 94.6439 108.815 95.4957 108.481C101.459 106.37 107.477 104.518 113.625 103.037C114.218 102.889 114.514 102.204 114.292 101.5C113.811 99.9629 113.551 99.1851 113.051 97.6296Z" fill="#2C2A29"/>
<path d="M99.7181 155.759C97.533 155.759 95.3293 155.629 93.1811 155.388H93.1255L91.9774 155.24C91.607 155.203 91.1441 155.148 90.6626 155.037C90.4033 154.981 90.1626 154.944 89.9033 154.907C89.4404 154.833 88.9774 154.74 88.4774 154.648L88.3107 154.611L86.0515 154.092C85.5515 153.962 85.07 153.833 84.607 153.685C84.3663 153.611 84.107 153.537 83.8663 153.481L83.7552 153.444C77.5885 151.574 71.8292 148.666 66.6626 144.796C61.5144 140.925 57.107 136.222 53.57 130.796C51.7922 128.074 50.2737 125.222 49.0329 122.314C47.7922 119.351 46.7922 116.277 46.07 113.148C45.4774 110.574 47.0885 107.999 49.6626 107.407C52.2366 106.814 54.8107 108.425 55.4033 110.999C55.9959 113.592 56.8107 116.129 57.8478 118.555C58.8663 120.944 60.1255 123.296 61.5885 125.555C64.5144 130.037 68.1626 133.944 72.4033 137.129C76.6626 140.314 81.4033 142.722 86.4774 144.259C86.7367 144.333 86.9959 144.407 87.2552 144.481C87.6626 144.592 88.033 144.703 88.4033 144.796L90.4033 145.259C90.7922 145.333 91.1811 145.407 91.57 145.462C91.8663 145.518 92.1441 145.555 92.4404 145.611L92.5144 145.629C92.6626 145.666 92.9033 145.685 93.1626 145.722L94.3293 145.87C96.9404 146.166 99.6255 146.259 102.292 146.111C104.94 145.981 107.181 147.999 107.329 150.629C107.477 153.259 105.44 155.518 102.811 155.666C101.755 155.722 100.737 155.759 99.7181 155.759Z" fill="#F5B6CD"/>
<path d="M58.8848 144.963C57.4403 144.963 55.9959 144.389 54.9033 143.259C49.1255 137.166 44.5514 129.815 41.6811 121.981C38.8292 114.166 37.57 105.592 38.07 97.2034C38.2366 94.1849 40.8477 91.8701 43.8663 92.0553C46.8848 92.222 49.1996 94.8146 49.0144 97.8516C48.607 104.759 49.644 111.815 51.9959 118.222C54.3477 124.648 58.107 130.703 62.8663 135.703C64.9589 137.907 64.8663 141.37 62.6626 143.463C61.607 144.463 60.2366 144.963 58.8848 144.963Z" fill="#FF7F41"/>
<path d="M99.5698 161.5C98.4587 161.5 97.3661 161.482 96.255 161.426H96.2179C89.6624 161.037 83.3661 159.667 77.5142 157.352C75.1994 156.426 74.0513 153.796 74.9772 151.482C75.9031 149.167 78.5327 148.019 80.8476 148.944C85.792 150.907 91.1438 152.074 96.7364 152.407C99.4772 152.537 102.236 152.482 104.922 152.222C107.644 151.926 110.366 151.426 112.977 150.741C123.551 147.926 133.107 141.704 139.903 133.204C141.459 131.259 144.311 130.926 146.255 132.5C148.199 134.056 148.514 136.907 146.959 138.852C138.959 148.852 127.718 156.185 115.273 159.5C112.199 160.296 109.033 160.889 105.848 161.222H105.792C103.736 161.407 101.662 161.5 99.5698 161.5Z" fill="#59CBE8"/>
<path d="M128.403 147.408C126.68 147.408 124.977 146.593 123.903 145.074C122.162 142.593 122.755 139.185 125.236 137.445C127.903 135.574 130.384 133.408 132.588 131C134.736 128.667 136.68 126.019 138.347 123.13C139.977 120.315 141.31 117.315 142.273 114.222C143.236 111.185 143.866 107.982 144.143 104.667C144.403 101.648 147.051 99.4076 150.069 99.6669C153.088 99.9262 155.329 102.574 155.069 105.593C154.718 109.704 153.921 113.722 152.736 117.519C151.514 121.371 149.866 125.111 147.829 128.611C145.755 132.204 143.329 135.5 140.643 138.408C137.903 141.389 134.829 144.074 131.532 146.389C130.588 147.074 129.477 147.408 128.403 147.408Z" fill="#9063CD"/>
<path d="M114.588 37.3894C115.457 37.3894 116.162 36.6846 116.162 35.8153C116.162 34.9459 115.457 34.2412 114.588 34.2412C113.718 34.2412 113.014 34.9459 113.014 35.8153C113.014 36.6846 113.718 37.3894 114.588 37.3894Z" fill="white"/>
<path d="M86.663 36.8339C87.2256 36.8339 87.6816 36.3779 87.6816 35.8154C87.6816 35.2529 87.2256 34.7969 86.663 34.7969C86.1005 34.7969 85.6445 35.2529 85.6445 35.8154C85.6445 36.3779 86.1005 36.8339 86.663 36.8339Z" fill="#00C389"/>
</svg>
