<svg width="1080" height="1080" viewBox="0 0 1080 1080" fill="none" xmlns="http://www.w3.org/2000/svg">
<path d="M652.503 285.199H281.203V779.899H652.503V285.199Z" fill="#F5B6CD"/>
<path d="M530.705 640.3H353.405C349.205 640.3 345.805 636.9 345.805 632.7C345.805 628.5 349.205 625.1 353.405 625.1H530.805C535.005 625.1 538.405 628.5 538.405 632.7C538.405 636.9 535.005 640.3 530.705 640.3Z" fill="white"/>
<path d="M580.405 696.098H353.405C349.205 696.098 345.805 692.698 345.805 688.498C345.805 684.298 349.205 680.898 353.405 680.898H580.505C584.705 680.898 588.105 684.298 588.105 688.498C588.105 692.698 584.705 696.098 580.405 696.098Z" fill="white"/>
<path d="M580.405 361.598H353.405C349.205 361.598 345.805 358.198 345.805 353.998C345.805 349.798 349.205 346.398 353.405 346.398H580.505C584.705 346.398 588.105 349.798 588.105 353.998C588.105 358.198 584.705 361.598 580.405 361.598Z" fill="white"/>
<path d="M530.705 417.399H353.405C349.205 417.399 345.805 413.999 345.805 409.799C345.805 405.599 349.205 402.199 353.405 402.199H530.805C535.005 402.199 538.405 405.599 538.405 409.799C538.405 413.999 535.005 417.399 530.705 417.399Z" fill="white"/>
<path d="M554.905 473.098H353.405C349.205 473.098 345.805 469.698 345.805 465.498C345.805 461.298 349.205 457.898 353.405 457.898H554.905C559.105 457.898 562.505 461.298 562.505 465.498C562.505 469.698 559.105 473.098 554.905 473.098Z" fill="white"/>
<path d="M485.705 528.899H353.405C349.205 528.899 345.805 525.499 345.805 521.299C345.805 517.099 349.205 513.699 353.405 513.699H485.705C489.905 513.699 493.305 517.099 493.305 521.299C493.305 525.499 489.905 528.899 485.705 528.899Z" fill="white"/>
<path d="M580.405 584.598H353.405C349.205 584.598 345.805 581.198 345.805 576.998C345.805 572.798 349.205 569.398 353.405 569.398H580.505C584.705 569.398 588.105 572.798 588.105 576.998C588.105 581.198 584.705 584.598 580.405 584.598Z" fill="white"/>
<path d="M744.599 915.2C855.829 915.2 945.999 825.031 945.999 713.8C945.999 602.57 855.829 512.4 744.599 512.4C633.369 512.4 543.199 602.57 543.199 713.8C543.199 825.031 633.369 915.2 744.599 915.2Z" fill="#E4AC7B"/>
<path d="M838.7 781.4L606.1 781.6C581.2 781.6 561 761.4 560.9 736.5L560.5 210.4C560.5 185.5 580.7 165.3 605.6 165.2L838.3 165C863.2 165 883.4 185.2 883.5 210.1L883.9 736.2C883.8 761.1 863.7 781.4 838.7 781.4Z" fill="#59CBE8"/>
<path d="M722.398 765.9C733.72 765.9 742.898 756.722 742.898 745.4C742.898 734.079 733.72 724.9 722.398 724.9C711.077 724.9 701.898 734.079 701.898 745.4C701.898 756.722 711.077 765.9 722.398 765.9Z" fill="white"/>
<path d="M859.301 233.5L859.601 705.6H859.401L585.201 705.8L585.101 651.4L584.801 233.7L859.301 233.5Z" fill="white"/>
<path d="M718.301 526.199C763.864 526.199 800.801 489.263 800.801 443.699C800.801 398.136 763.864 361.199 718.301 361.199C672.737 361.199 635.801 398.136 635.801 443.699C635.801 489.263 672.737 526.199 718.301 526.199Z" fill="#00C389"/>
<path d="M695.202 490.7C693.202 490.7 691.202 489.9 689.602 488.4L667.802 466.6C664.702 463.5 664.702 458.5 667.802 455.4C670.902 452.3 675.902 452.3 679.002 455.4L695.202 471.6L757.602 409.2C760.702 406.1 765.702 406.1 768.802 409.2C771.902 412.3 771.902 417.3 768.802 420.4L700.902 488.4C699.302 489.9 697.202 490.7 695.202 490.7Z" fill="white"/>
<path d="M859.402 651.301H585.102V705.801H859.402V651.301Z" fill="#FDDA24"/>
<path d="M940.902 727.4C934.102 759.1 920.602 789.3 901.002 815.7C896.602 821.6 893.002 828.6 890.002 836.2C886.502 845 870.502 829.7 868.502 839.1C857.502 837 860.302 858.1 850.702 853L794.302 781.5C792.102 772.7 790.902 763.5 790.902 754C790.902 716.3 809.502 683 838.002 662.7C847.102 656.2 848.902 654.2 859.702 650.6V602.8L817.002 515.6C800.302 489.6 807.802 455.1 833.802 438.4C834.902 437.7 836.102 437.4 837.302 437.4C839.402 437.4 841.502 438.4 842.702 440.3L888.602 511.8L928.302 573.1C937.702 587.6 943.002 604.3 943.802 621.6L944.802 643.7L945.102 650.2V650.4L945.902 668.3C946.702 688.4 945.002 708.2 940.902 727.4Z" fill="#E4AC7B"/>
<path d="M794.203 781.699L850.603 853.199C822.903 838.599 802.103 812.699 794.203 781.699Z" fill="#E4AC7B"/>
<path d="M945.103 650.4V650.5V650.4C945.003 650.4 945.103 650.4 945.103 650.4Z" fill="#CB913F"/>
<path d="M546.901 700.3L514.001 659.1C500.901 642.7 503.601 618.8 520.001 605.7L549.701 582L606.201 652.9C619.301 669.3 616.601 693.2 600.201 706.3C583.801 719.4 559.901 716.7 546.901 700.3Z" fill="#E4AC7B"/>
<path d="M546.801 623.4L514.001 582.2C500.901 565.8 503.601 541.9 520.001 528.8L549.701 505.1L606.201 576C619.301 592.4 616.601 616.3 600.201 629.4C583.801 642.5 559.901 639.8 546.801 623.4Z" fill="#E4AC7B"/>
<path d="M546.801 546.601L514.001 505.401C500.901 489.001 503.601 465.101 520.001 452.001L549.701 428.301L606.201 499.201C619.301 515.601 616.601 539.501 600.201 552.601C583.701 565.701 559.801 563.001 546.801 546.601Z" fill="#E4AC7B"/>
<path d="M549.602 351.499L560.702 343.199V383.999L549.602 351.499Z" fill="#E4AC7B"/>
<path d="M546.7 469.7L513.9 428.5C500.8 412.1 503.5 388.2 519.9 375.1L549.6 351.4L606.1 422.3C619.2 438.7 616.5 462.6 600.1 475.7C583.7 488.8 559.8 486.1 546.7 469.7Z" fill="#E4AC7B"/>
<path d="M746.103 551.3C747.203 551.8 748.303 552.4 749.303 553.1C757.303 559 764.103 567.3 769.103 577C771.303 581.1 773.203 585.7 774.903 591.1C776.303 595.3 777.503 600 778.603 605.9V606.2L779.203 610.1L779.703 614C779.803 614.5 779.803 615 779.903 615.5L780.103 617.5C780.103 617.8 780.203 618.2 780.203 618.5C780.303 619.4 780.403 620.3 780.403 621.2C780.703 625.9 780.703 630.9 780.603 636.1V636.3C780.303 642 779.903 646.8 779.203 651.3C778.303 657.1 777.303 661.8 776.103 666.2C774.703 671.3 773.103 676.2 771.203 680.6L771.103 680.8L769.603 684.2C769.203 685 768.803 685.7 768.403 686.5C768.203 686.8 768.103 687.1 767.903 687.4L767.003 689L763.803 694.3C758.503 702.9 752.103 710.8 744.903 718C737.503 725.3 729.503 731.5 721.003 736.6C713.703 740.9 704.303 738.5 699.903 731.2C695.603 723.9 698.003 714.5 705.303 710.1C711.703 706.3 717.703 701.6 723.303 696.1C728.803 690.7 733.603 684.6 737.603 678.2L740.403 673.4C740.603 673 740.803 672.6 741.003 672.2C741.203 671.8 741.403 671.5 741.603 671.1L742.803 668.5C744.103 665.4 745.303 661.9 746.303 658.2C747.203 654.9 747.903 651.3 748.603 646.7C749.103 643.3 749.503 639.6 749.703 634.9C749.803 630.7 749.803 626.7 749.603 623V622.8C749.603 622.3 749.503 621.8 749.503 621.3C749.503 620.8 749.403 620.4 749.403 619.9L749.303 618.4C749.303 618.2 749.303 618.1 749.203 617.9L748.703 614.2L748.203 611.4C747.403 607 746.603 603.6 745.603 600.8V600.7C744.403 596.9 743.103 593.8 741.803 591.3L741.703 591.1C738.903 585.6 735.203 581 730.903 577.8C724.103 572.7 722.703 563.1 727.703 556.3C732.103 550.4 739.703 548.6 746.103 551.3Z" fill="#9063CD"/>
<path d="M790.803 615.1C796.703 617.6 800.903 623.5 800.803 630.4C800.703 644.8 798.903 658.7 795.403 671.7C793.303 679.3 790.903 686.1 787.803 692.5C787.203 693.9 786.503 695.1 785.903 696.2C785.703 696.6 785.503 697 785.303 697.4L785.103 697.8C784.403 699 783.803 700.1 783.203 701.1C783.003 701.5 782.703 701.9 782.503 702.2C781.103 704.8 779.503 707.1 778.103 709.1C777.703 709.7 777.303 710.3 776.903 710.9L776.503 711.4C773.503 715.6 768.903 721.8 763.403 727.6C761.503 729.7 759.603 731.6 757.903 733.2C757.303 733.7 756.803 734.3 756.203 734.8L755.803 735.2C754.903 736 754.003 736.8 753.103 737.6C752.703 737.9 752.403 738.2 752.003 738.6L749.803 740.6C749.303 741 748.803 741.4 748.303 741.8L743.303 745.7L739.603 748.4C737.903 749.6 736.403 750.6 735.003 751.5L734.703 751.7C734.303 751.9 733.903 752.2 733.603 752.4C732.603 753.1 731.403 753.8 730.103 754.5L726.203 756.7C725.003 757.4 724.003 757.9 723.203 758.3L721.303 759.2C718.703 760.5 716.203 761.6 714.003 762.6C713.303 762.9 712.603 763.2 711.903 763.5L711.203 763.8C704.003 766.5 697.403 768.6 691.003 770C689.603 770.3 688.303 770.6 687.103 770.8C686.703 770.9 686.203 771 685.803 771L682.903 771.5C682.203 771.6 681.503 771.7 680.803 771.8L680.003 772C679.503 772.1 679.103 772.1 678.603 772.2C677.403 772.4 676.203 772.5 675.003 772.6H674.503L670.003 772.9C668.303 773 666.703 773 665.503 773.1C665.103 773.1 664.703 773.1 664.403 773.1H664.103C663.803 773.1 663.403 773.1 663.103 773.1C661.803 773.1 660.203 773.1 658.403 773L653.203 772.7C652.003 772.6 650.803 772.4 649.603 772.3L647.403 772.1C646.803 772 646.003 771.9 645.103 771.8L639.703 770.8C638.903 770.7 637.903 770.5 636.703 770.2L632.403 769.2C631.003 768.9 629.903 768.5 629.003 768.2L627.003 767.6C624.103 766.8 621.503 765.8 619.203 764.9C618.503 764.6 617.803 764.4 617.103 764.1L616.703 764L616.303 763.8C615.203 763.3 614.103 762.8 613.003 762.3L608.603 760.3L605.203 758.5C604.103 757.9 603.103 757.4 602.103 756.8L601.503 756.4L597.303 753.8C597.103 753.7 597.003 753.6 596.803 753.5C596.303 753.2 595.603 752.7 594.803 752.2L591.503 749.9C590.503 749.2 589.503 748.5 588.603 747.8L588.103 747.4L581.903 742.3L576.403 737.2C575.603 736.4 574.803 735.7 574.103 734.9L572.903 733.7C567.703 728.4 563.503 723.7 559.703 719C554.003 711.9 555.203 701.6 562.303 695.9C569.403 690.2 579.703 691.4 585.403 698.5C588.503 702.3 591.903 706.2 596.303 710.7L597.303 711.7C597.903 712.3 598.503 712.9 599.103 713.5L603.703 717.7L608.503 721.6C609.203 722.1 609.803 722.6 610.503 723L613.503 725.1C613.703 725.2 613.803 725.3 614.003 725.4C614.303 725.6 614.503 725.7 614.803 725.9L618.403 728.1C619.103 728.5 619.903 728.9 620.603 729.3L623.503 730.9L626.503 732.3C627.303 732.6 628.003 733 628.803 733.3C629.503 733.6 630.203 733.8 630.803 734.1C632.703 734.8 634.403 735.5 635.903 735.9L636.303 736L638.703 736.7C639.303 736.9 639.503 736.9 639.503 736.9L639.803 737L644.603 738.2C644.803 738.2 645.003 738.3 645.203 738.3L650.103 739.2C650.303 739.2 650.503 739.3 650.803 739.3C651.103 739.3 651.403 739.4 651.703 739.4L653.103 739.6C654.003 739.7 654.803 739.8 655.703 739.9L660.403 740.2C660.903 740.2 661.703 740.2 662.503 740.2C662.903 740.2 663.303 740.2 663.703 740.2C664.203 740.2 664.703 740.2 665.203 740.2C665.903 740.2 666.703 740.2 667.103 740.2H667.503L671.903 739.9C672.703 739.8 673.503 739.7 674.303 739.6C674.803 739.5 675.303 739.5 675.803 739.4C676.103 739.4 676.403 739.3 676.703 739.3C677.003 739.3 677.203 739.2 677.503 739.2L679.503 738.8C680.103 738.7 680.703 738.6 681.203 738.5C682.003 738.4 682.703 738.2 683.203 738.1L683.603 738C688.303 737 693.403 735.4 698.903 733.3C699.603 733 700.303 732.7 701.003 732.4C702.903 731.6 704.603 730.9 706.103 730.1L706.403 729.9L708.603 728.8C708.803 728.7 709.303 728.5 709.503 728.3L709.703 728.2L713.803 725.9C714.303 725.6 714.903 725.2 715.603 724.8C716.103 724.5 716.603 724.1 717.103 723.8L717.203 723.7C718.203 723 719.203 722.4 720.003 721.9L720.203 721.7L723.703 719.2L727.703 716C728.003 715.8 728.203 715.6 728.503 715.4L730.003 714.1C730.403 713.7 730.803 713.4 731.203 713C731.803 712.5 732.403 711.9 733.003 711.4C733.603 710.8 734.103 710.3 734.703 709.7C736.203 708.3 737.503 706.9 738.603 705.7L739.003 705.2C742.203 701.8 745.303 697.9 749.203 692.5C749.603 691.9 750.003 691.3 750.403 690.7C751.603 689 752.703 687.3 753.503 685.8L753.603 685.6C753.903 685.1 754.203 684.6 754.503 684.1C754.903 683.4 755.303 682.7 755.703 682.1C755.903 681.6 756.203 681.2 756.403 680.7C756.803 679.9 757.203 679.1 757.503 678.5L757.603 678.3C759.803 673.6 761.603 668.6 763.203 662.9C765.903 652.7 767.403 641.6 767.503 630C767.603 620.9 775.003 613.6 784.103 613.7C786.703 613.8 788.803 614.3 790.803 615.1Z" fill="#FF7F41"/>
<path d="M177 568.398C179 568.398 181.1 568.698 183.1 569.198C195.4 572.598 202.6 585.198 199.2 597.498L198.2 601.398L197.2 605.898C197.1 606.498 197 606.998 196.9 607.598C196.5 609.898 196.1 612.098 195.9 613.998L195.8 614.498L195.5 616.898C195.5 617.098 195.5 617.198 195.5 617.398C195.5 617.798 195.4 618.098 195.4 618.498C195.3 619.198 195.3 619.798 195.2 620.498C195.1 621.298 195.1 622.098 195 622.598L194.8 627.598C194.8 628.098 194.8 628.798 194.8 629.498C194.8 630.198 194.8 630.798 194.8 631.498C195 637.698 195.5 642.898 196.4 647.498V647.598C197.6 653.698 198.9 658.698 200.6 662.898L201.4 664.998L203.1 668.898C203.2 669.198 203.4 669.498 203.5 669.798L203.6 669.898L206.3 675.198L208 677.998C208.6 678.998 209.5 680.398 210.6 681.898C211.1 682.598 211.6 683.398 212.1 684.098C212.5 684.598 212.9 685.098 213.2 685.498C213.6 686.098 214.1 686.598 214.5 687.198L215.7 688.698C215.8 688.798 215.9 688.898 216 688.998C216.3 689.298 216.5 689.598 216.8 689.898L219.7 693.098C220.2 693.598 220.7 693.998 221.2 694.498C221.7 694.998 222.2 695.498 222.7 695.998L224.3 697.598C224.6 697.898 225 698.198 225.3 698.398L229.2 701.698C229.3 701.798 229.4 701.798 229.5 701.898L233.9 705.198C234.1 705.398 234.4 705.498 234.6 705.698L234.8 705.898L240.8 709.798C241 709.898 241.1 709.998 241.3 710.098C241.6 710.298 242 710.498 242.3 710.698C253.3 717.098 257 731.198 250.6 742.198C244.2 753.198 230.1 756.898 219.1 750.498L218.5 750.198C217.8 749.798 217.1 749.398 216.4 748.998L215.8 748.598L209.7 744.598C208.4 743.798 207.3 742.998 206.7 742.498L202 738.998C201.2 738.398 200.1 737.598 198.9 736.498L194.8 732.998C194.2 732.498 193.3 731.698 192.2 730.698L190.4 728.998C190 728.598 189.6 728.198 189.1 727.798C188.3 726.998 187.4 726.198 186.6 725.298L185.8 724.498L182 720.198C181.4 719.598 180.8 718.898 180.3 718.298L179.9 717.798L178.3 715.698C178 715.298 177.6 714.898 177.3 714.498C176.6 713.598 175.8 712.598 174.9 711.398L174.3 710.498C173.8 709.798 173.4 709.098 172.9 708.398C171.4 706.198 169.7 703.798 168.1 700.898L166 697.398L162.9 691.398C162.2 689.998 161.7 688.798 161.3 688.098L158.6 681.698L157.8 679.598C155.2 672.798 153.1 665.298 151.4 656.598C150 649.398 149.2 641.498 148.9 632.698V632.098C148.9 631.598 148.9 631.198 148.9 630.698C148.9 629.398 148.8 627.898 148.9 626.098L149.1 620.798C149.2 619.198 149.3 617.798 149.4 616.598C149.4 616.098 149.5 615.598 149.5 615.098V614.598C149.5 614.398 149.5 614.198 149.5 614.098C149.6 613.398 149.6 612.398 149.8 611.298L150.1 608.898C150.5 605.498 151 602.398 151.5 599.598C151.6 598.898 151.7 598.198 151.9 597.598L152.1 596.498L153.8 589.298L154.8 585.598C157.6 575.098 166.9 568.398 177 568.398Z" fill="#9063CD"/>
<path d="M293.001 462.899C301.901 462.899 309.301 469.999 309.401 478.999C309.601 488.099 302.401 495.599 293.301 495.799C280.601 496.099 268.201 497.899 256.501 501.199L255.501 501.499C253.401 502.099 251.301 502.699 249.501 503.399H249.401C248.901 503.599 248.301 503.799 247.801 503.999C247.101 504.199 246.401 504.499 245.901 504.699L241.701 506.399C240.901 506.699 240.001 507.099 238.901 507.599L235.201 509.299L230.201 511.899L225.301 514.699L221.701 516.999C220.501 517.699 219.201 518.699 217.701 519.799C217.101 520.299 216.401 520.699 215.701 521.199C210.901 524.899 207.401 527.899 204.501 530.899L204.201 531.199C201.101 534.199 197.901 537.699 194.301 542.399L191.901 545.599C191.701 545.799 191.501 546.099 191.401 546.299C191.301 546.499 191.101 546.599 191.001 546.799L187.701 551.799L185.701 555.199C180.701 563.599 176.501 573.099 173.201 583.299C170.001 593.199 167.801 603.399 166.601 613.699C165.501 624.099 165.501 634.499 166.701 644.599C167.701 653.599 161.301 661.799 152.301 662.799C143.301 663.799 135.101 657.399 134.101 648.399C132.701 635.899 132.601 622.999 134.001 610.099C135.401 597.599 138.101 585.199 142.001 573.099C146.101 560.599 151.301 548.899 157.601 538.399L160.301 533.999L163.901 528.499C164.401 527.799 164.801 527.199 165.201 526.599L168.501 522.099C173.101 516.299 177.201 511.699 181.401 507.599C185.401 503.499 189.901 499.599 196.001 494.999L196.601 494.599C197.201 494.099 197.901 493.699 198.501 493.199C200.201 491.899 202.201 490.499 204.401 489.099L208.501 486.399L214.801 482.799L221.201 479.499L225.301 477.599C226.701 476.999 228.201 476.299 229.901 475.599L233.801 473.999C235.101 473.499 236.201 473.099 237.201 472.799C237.601 472.699 238.001 472.499 238.301 472.399C241.101 471.399 243.701 470.599 246.201 469.799L247.501 469.399C262.001 465.299 277.201 462.999 292.801 462.699C292.801 462.899 292.901 462.899 293.001 462.899Z" fill="#FF7F41"/>
<path d="M296.401 479.1C298.201 479.1 300.001 479.1 301.501 479.2H302.201C302.901 479.2 303.601 479.3 304.301 479.3C306.401 479.4 308.801 479.5 311.301 479.7C311.701 479.7 312.101 479.8 312.401 479.8C313.501 479.9 314.501 480 315.601 480.1H316.001L323.001 481L329.901 482.1L334.601 483C335.801 483.2 337.301 483.5 338.901 483.9C350.901 486.7 362.601 490.5 373.701 495.3L374.001 495.4L379.901 498C380.601 498.3 381.201 498.6 381.901 499L392.901 504.6L402.301 510.1C402.901 510.4 403.701 510.9 404.701 511.6L413.201 517.2C414.701 518.2 416.001 519.1 416.901 519.8C417.101 520 417.401 520.2 417.601 520.3L417.801 520.4L424.501 525.3C425.701 526.2 426.801 527.1 427.601 527.8C427.901 528 428.201 528.3 428.401 528.5L428.601 528.7L435.601 534.4C439.901 538.1 444.201 542 448.501 546C457.701 554.8 458.101 569.3 449.401 578.6C440.601 587.8 426.101 588.2 416.801 579.5C413.201 576.1 409.501 572.8 405.901 569.6L399.701 564.6C399.201 564.2 398.801 563.9 398.301 563.5C397.901 563.2 397.401 562.8 397.201 562.6L390.501 557.7C390.101 557.4 389.701 557.1 389.301 556.8C389.001 556.6 388.701 556.4 388.401 556.2L388.001 555.9L379.401 550.3C379.101 550.1 378.801 550 378.501 549.8L370.201 545L361.601 540.7C361.301 540.6 361.101 540.4 360.801 540.3C360.701 540.2 360.601 540.2 360.501 540.1L355.301 537.8C346.601 534.1 337.401 531.1 328.001 528.9L327.501 528.8C327.001 528.7 326.301 528.5 325.501 528.4L321.201 527.5L316.001 526.7L310.601 526C310.001 525.9 309.401 525.9 308.801 525.8C308.201 525.8 307.701 525.7 307.101 525.7H306.801C305.601 525.6 304.001 525.5 302.401 525.4C301.701 525.4 301.001 525.3 300.301 525.3C296.501 525.2 291.601 525.2 286.901 525.6L286.201 525.7C284.901 525.8 283.301 526 281.701 526.2C281.001 526.3 280.301 526.4 279.601 526.4C279.301 526.4 278.701 526.5 278.201 526.6C277.601 526.7 277.101 526.8 276.501 526.9L276.001 527C275.301 527.1 274.501 527.2 274.101 527.3L273.601 527.4L270.001 528.1C269.401 528.2 268.901 528.4 268.301 528.5C267.801 528.6 267.201 528.8 266.701 528.9L265.301 529.2L260.501 530.7C256.001 532.2 252.101 533.8 248.601 535.5C237.101 541 223.401 536.2 217.901 524.7C212.401 513.2 217.201 499.5 228.701 494C234.001 491.4 239.701 489.2 246.101 487L246.801 486.8L253.601 484.8L255.601 484.3C256.001 484.2 256.501 484.1 256.901 484C257.901 483.8 258.801 483.5 259.801 483.3L260.401 483.2L264.101 482.4C265.801 482 267.401 481.8 268.701 481.6L269.501 481.5C269.901 481.4 270.201 481.4 270.601 481.3C271.601 481.1 272.801 480.9 274.201 480.8H274.301C274.901 480.7 275.501 480.7 276.201 480.6C278.301 480.3 280.701 480.1 283.301 479.9C287.901 479.3 292.401 479.1 296.401 479.1Z" fill="#00C389"/>
<path d="M404.402 495.199C407.502 495.199 410.702 496.099 413.502 497.899L424.202 504.999L431.702 510.499C434.502 512.499 437.002 514.499 439.402 516.499L445.002 520.999C446.202 521.999 447.302 522.899 448.202 523.799C448.602 524.199 449.002 524.499 449.402 524.899L449.502 524.999L454.302 529.199C455.402 530.199 456.702 531.299 458.002 532.599L466.902 541.199C471.502 545.899 476.402 550.799 481.002 555.999C490.202 566.199 499.802 577.599 510.302 590.899C516.002 598.099 514.702 608.599 507.502 614.299C500.302 619.999 489.802 618.699 484.102 611.499C474.102 598.799 465.102 587.899 456.402 578.399L456.302 578.299C452.202 573.699 447.902 569.299 443.302 564.599L442.502 563.799L434.902 556.499C434.202 555.799 433.402 555.099 432.502 554.299L427.802 550.099C427.302 549.699 426.802 549.199 426.302 548.799C425.602 548.199 424.902 547.599 424.402 547.099L418.702 542.499C416.602 540.799 414.602 539.199 412.702 537.799L412.402 537.599L405.202 532.299L395.502 525.899C387.802 520.799 385.702 510.499 390.702 502.799C393.702 497.899 399.002 495.199 404.402 495.199Z" fill="#9063CD"/>
</svg>
